<?xml version="1.0" standalone="no"?>
<!DOCTYPE svg PUBLIC "-//W3C//DTD SVG 20010904//EN"
 "http://www.w3.org/TR/2001/REC-SVG-20010904/DTD/svg10.dtd">
<svg version="1.0" xmlns="http://www.w3.org/2000/svg"
 width="2000.000000pt" height="2000.000000pt" viewBox="0 0 2000.000000 2000.000000"
 preserveAspectRatio="xMidYMid meet">
<metadata>
Created by potrace 1.14, written by Peter Selinger 2001-2017
</metadata>
<g transform="translate(0.000000,2000.000000) scale(0.100000,-0.100000)"
fill="#000000" stroke="none">
<path d="M9659 19696 c-2 -2 -71 -7 -154 -10 -212 -10 -440 -28 -525 -41 -14
-2 -56 -7 -95 -10 -38 -3 -81 -8 -95 -10 -40 -7 -135 -21 -210 -30 -25 -3 -70
-10 -100 -15 -30 -5 -71 -12 -90 -15 -19 -3 -46 -7 -60 -10 -14 -3 -36 -7 -50
-9 -14 -2 -95 -18 -180 -36 -85 -18 -168 -34 -185 -36 -25 -4 -150 -36 -547
-138 -118 -31 -476 -146 -678 -219 -216 -78 -470 -182 -730 -298 -84 -37 -522
-257 -615 -309 -222 -122 -526 -307 -720 -437 -60 -40 -117 -78 -125 -83 -88
-58 -413 -298 -501 -370 -30 -25 -73 -58 -94 -75 -38 -29 -299 -249 -321 -270
-6 -5 -51 -47 -100 -91 -140 -128 -154 -141 -249 -234 -105 -103 -318 -322
-390 -400 -73 -81 -194 -219 -240 -274 -22 -26 -48 -57 -59 -69 -50 -58 -250
-313 -316 -402 -40 -55 -97 -131 -125 -170 -163 -221 -468 -706 -612 -975
-107 -199 -243 -464 -243 -474 0 -2 -24 -55 -54 -117 -30 -63 -66 -142 -80
-176 -14 -35 -37 -86 -49 -115 -13 -29 -30 -69 -37 -88 -7 -19 -21 -53 -30
-75 -85 -197 -220 -587 -315 -910 -29 -100 -150 -574 -158 -620 -3 -17 -12
-63 -21 -102 -9 -40 -18 -85 -21 -100 -3 -16 -7 -39 -10 -53 -3 -14 -7 -37
-10 -52 -2 -15 -6 -35 -9 -45 -3 -10 -7 -36 -11 -58 -3 -22 -12 -78 -20 -125
-8 -47 -17 -105 -20 -130 -3 -25 -7 -56 -10 -70 -7 -37 -19 -133 -30 -235 -3
-27 -8 -72 -11 -100 -4 -27 -8 -63 -9 -80 -9 -116 -18 -225 -20 -255 -31 -313
-25 -1139 10 -1490 3 -30 7 -82 10 -115 5 -53 11 -115 31 -285 6 -54 13 -106
19 -140 2 -14 7 -45 10 -70 69 -530 277 -1349 481 -1899 63 -168 135 -355 144
-372 4 -9 25 -56 45 -105 20 -49 42 -102 50 -119 337 -748 730 -1408 1201
-2016 113 -146 288 -360 355 -435 20 -21 80 -88 135 -149 191 -213 409 -431
680 -681 46 -43 154 -137 194 -170 19 -16 37 -31 40 -34 5 -5 154 -128 190
-157 23 -18 194 -152 205 -160 6 -5 35 -27 65 -49 63 -48 262 -190 347 -249
149 -103 493 -318 648 -405 404 -228 829 -433 1200 -579 44 -18 89 -36 100
-41 35 -17 294 -109 460 -165 278 -93 664 -201 918 -256 51 -11 101 -22 112
-24 31 -7 217 -44 248 -49 15 -3 35 -7 45 -10 9 -3 35 -7 57 -11 22 -3 78 -12
125 -20 94 -15 116 -19 240 -35 47 -6 96 -13 110 -15 14 -2 54 -6 90 -10 36
-4 76 -8 90 -10 14 -3 52 -7 85 -10 33 -3 89 -8 125 -11 459 -44 1288 -38
1740 11 19 2 82 9 140 15 58 6 123 13 145 16 87 12 111 15 135 19 14 2 45 7
70 10 25 3 68 10 95 15 28 5 70 12 95 15 25 4 92 16 150 27 58 11 112 21 120
23 8 1 31 5 50 9 19 3 44 8 55 11 11 2 63 14 115 25 114 25 88 19 290 70 91
23 226 60 300 82 74 22 155 46 180 53 88 26 276 87 355 116 44 17 103 38 130
48 83 31 217 83 260 101 22 9 56 23 75 30 47 18 142 59 340 147 112 51 531
260 620 310 19 11 60 34 90 50 436 243 907 560 1305 878 92 73 213 173 225
185 3 3 21 18 40 34 36 30 140 122 244 216 125 113 409 395 521 515 20 22 58
63 83 90 58 62 182 203 242 275 25 29 59 70 76 89 156 181 438 564 626 851
287 437 569 953 758 1385 29 66 62 143 75 170 12 28 46 111 75 185 29 74 65
167 80 205 59 149 189 550 259 800 53 191 147 588 165 695 5 31 16 90 30 155
3 17 11 62 22 130 1 11 7 47 13 80 6 33 13 80 16 105 3 25 8 56 10 70 2 14 7
49 10 79 4 30 8 61 10 70 1 9 6 48 9 86 4 39 9 81 11 95 7 44 22 213 30 330
27 389 27 1066 1 1370 -2 25 -7 83 -11 130 -3 47 -8 99 -10 115 -2 17 -7 62
-10 100 -4 39 -8 81 -10 95 -2 14 -6 50 -9 81 -4 31 -8 65 -10 75 -2 11 -7 42
-10 69 -4 28 -9 61 -11 75 -15 94 -37 229 -40 250 -2 14 -11 63 -20 110 -10
47 -19 94 -21 105 -4 29 -21 109 -39 190 -9 39 -18 79 -20 90 -1 11 -8 38 -14
60 -6 22 -25 96 -41 165 -59 238 -221 772 -241 795 -5 5 -9 16 -9 26 0 9 -9
38 -19 65 -11 27 -41 105 -67 174 -25 69 -52 139 -59 155 -8 17 -43 100 -79
186 -88 212 -102 241 -227 494 -153 309 -218 430 -372 685 -54 91 -108 180
-118 198 -19 33 -213 324 -265 398 -63 90 -179 249 -184 254 -3 3 -47 59 -97
125 -148 194 -429 524 -589 692 -250 261 -421 427 -693 669 -80 71 -232 197
-341 283 -58 45 -112 88 -120 94 -26 21 -213 160 -258 191 -24 17 -55 40 -70
52 -55 43 -375 253 -532 349 -265 163 -742 418 -1005 537 -129 59 -204 91
-310 134 -60 25 -119 49 -130 54 -125 59 -642 237 -930 320 -345 99 -848 214
-1080 245 -22 3 -53 9 -70 12 -16 3 -39 7 -50 9 -11 1 -36 5 -55 8 -19 2 -57
7 -85 11 -27 3 -75 10 -105 15 -30 5 -84 12 -120 15 -36 3 -76 8 -90 10 -14 2
-63 7 -110 11 -47 3 -93 8 -102 9 -9 2 -72 7 -140 10 -68 4 -136 9 -153 12
-35 5 -861 14 -866 9z"/>
</g>
</svg>
